<svg height="800" width="800" xmlns="http://www.w3.org/2000/svg" viewBox="0 0 431.762 431.762" xml:space="preserve"><path d="M321.843 405.303H109.92a4.5 4.5 0 0 1-4.5-4.5V30.96a4.5 4.5 0 0 1 4.5-4.5h211.923a4.5 4.5 0 0 1 4.5 4.5v369.843a4.5 4.5 0 0 1-4.5 4.5zm-207.423-9h202.923V35.46H114.42v360.843z"/><path d="M215.88 238.585a4.505 4.505 0 0 1-3.182-1.318l-18.203-18.204a4.5 4.5 0 0 1 0-6.363l18.203-18.204a4.5 4.5 0 0 1 6.364 0l18.205 18.204a4.499 4.499 0 0 1 0 6.364l-18.205 18.204a4.504 4.504 0 0 1-3.182 1.317zm-11.839-22.704 11.839 11.84 11.841-11.84-11.841-11.84-11.839 11.84zm11.839-73.276a4.485 4.485 0 0 1-3.182-1.318l-18.203-18.203a4.5 4.5 0 0 1 0-6.363l18.203-18.204a4.5 4.5 0 0 1 6.364 0l18.205 18.204a4.499 4.499 0 0 1 0 6.365l-18.205 18.203a4.493 4.493 0 0 1-3.182 1.316zm-11.839-22.703 11.839 11.839 11.841-11.839-11.841-11.84-11.839 11.84zm11.839 214.662a4.505 4.505 0 0 1-3.182-1.318l-18.203-18.204a4.5 4.5 0 0 1 0-6.363l18.203-18.203a4.5 4.5 0 0 1 6.364-.001l18.205 18.203a4.503 4.503 0 0 1 0 6.365l-18.205 18.204a4.504 4.504 0 0 1-3.182 1.317zm-11.839-22.705 11.839 11.84 11.841-11.84-11.841-11.839-11.839 11.839zm-33.977-123.826a4.485 4.485 0 0 1-3.182-1.318l-15.643-15.643a4.5 4.5 0 0 1 0-6.363l15.643-15.643a4.5 4.5 0 0 1 6.364 0l15.644 15.643a4.499 4.499 0 0 1 0 6.364l-15.644 15.643a4.486 4.486 0 0 1-3.182 1.317zm-9.278-20.142 9.279 9.278 9.279-9.278-9.279-9.279-9.279 9.279zm9.278 116.121a4.489 4.489 0 0 1-3.182-1.318l-15.643-15.642a4.498 4.498 0 0 1 0-6.363l15.643-15.644a4.5 4.5 0 0 1 6.364 0l15.644 15.644a4.499 4.499 0 0 1 0 6.365l-15.644 15.642a4.493 4.493 0 0 1-3.182 1.316zm-9.278-20.142 9.279 9.278 9.279-9.278-9.279-9.279-9.279 9.279z"/><path d="m263.848 222.268 8.295 8.295a4.483 4.483 0 0 0 3.182 1.318 4.486 4.486 0 0 0 3.182-1.318l11.501-11.5a4.499 4.499 0 0 0 0-6.364l-11.501-11.502a4.5 4.5 0 0 0-6.364 0l-8.295 8.296-41.604-41.602 41.604-41.602 8.295 8.295a4.483 4.483 0 0 0 3.182 1.318 4.486 4.486 0 0 0 3.182-1.318l11.501-11.5a4.499 4.499 0 0 0 0-6.364l-11.501-11.501a4.499 4.499 0 0 0-6.364 0l-8.295 8.295-44.786-44.784a4.496 4.496 0 0 0-6.364 0l-44.783 44.784-8.295-8.295a4.496 4.496 0 0 0-6.364 0l-11.5 11.501a4.5 4.5 0 0 0 0 6.363l11.5 11.5a4.485 4.485 0 0 0 3.182 1.318 4.486 4.486 0 0 0 3.182-1.318l8.295-8.295 41.602 41.602-41.602 41.602-8.295-8.296a4.5 4.5 0 0 0-6.364 0l-11.5 11.502a4.5 4.5 0 0 0 0 6.363l11.5 11.5a4.485 4.485 0 0 0 3.182 1.318 4.486 4.486 0 0 0 3.182-1.318l8.295-8.295 41.602 41.604-41.602 41.602-8.294-8.295a4.496 4.496 0 0 0-6.364 0l-11.5 11.501a4.5 4.5 0 0 0 0 6.363l11.5 11.5a4.485 4.485 0 0 0 3.182 1.318 4.49 4.49 0 0 0 3.182-1.318l8.295-8.295 44.783 44.784a4.5 4.5 0 0 0 6.364 0l44.785-44.784 8.295 8.295a4.483 4.483 0 0 0 3.182 1.318 4.49 4.49 0 0 0 3.182-1.318l11.501-11.5a4.499 4.499 0 0 0 0-6.364l-11.501-11.501a4.499 4.499 0 0 0-6.364 0l-8.295 8.295-41.604-41.602 41.604-41.601zm11.476-11.525 5.137 5.138-5.137 5.137-5.137-5.137 5.137-5.138zm0-95.977 5.137 5.137-5.137 5.137-5.137-5.137 5.137-5.137zm-118.886 10.272-5.136-5.136 5.136-5.137 5.137 5.137-5.137 5.136zm59.442-46.762 41.627 41.626-41.627 41.624-41.626-41.624 41.626-41.626zm-59.442 142.741-5.136-5.136 5.136-5.138 5.137 5.138-5.137 5.136zm59.442-46.762 41.627 41.626-41.627 41.626-41.626-41.626 41.626-41.626zm-59.442 142.741-5.136-5.136 5.136-5.137 5.137 5.137-5.137 5.136zm118.886-10.272 5.137 5.137-5.137 5.137-5.137-5.137 5.137-5.137zm-59.444 46.761-41.626-41.626 41.626-41.624 41.627 41.624-41.627 41.626z"/><path d="M261.697 188.033a4.485 4.485 0 0 1-3.182-1.318l-15.644-15.643a4.499 4.499 0 0 1 0-6.364l15.644-15.643a4.5 4.5 0 0 1 3.182-1.318c1.193 0 2.338.475 3.182 1.318l15.643 15.643a4.5 4.5 0 0 1 0 6.363l-15.643 15.643a4.481 4.481 0 0 1-3.182 1.319zm-9.279-20.142 9.279 9.278 9.279-9.278-9.279-9.279-9.279 9.279zm9.279 116.121a4.494 4.494 0 0 1-3.182-1.317l-15.644-15.642a4.503 4.503 0 0 1 0-6.365l15.644-15.644a4.5 4.5 0 0 1 3.182-1.318c1.193 0 2.338.475 3.182 1.318l15.643 15.644a4.5 4.5 0 0 1 0 6.363l-15.643 15.642a4.486 4.486 0 0 1-3.182 1.319zm-9.279-20.142 9.279 9.278 9.279-9.278-9.279-9.279-9.279 9.279z"/><path d="M301.863 47.854H129.898a4.5 4.5 0 0 0-4.5 4.5V379.41a4.5 4.5 0 0 0 4.5 4.5h171.965a4.5 4.5 0 0 0 4.5-4.5V52.354a4.5 4.5 0 0 0-4.5-4.5zm-30.887 20.141-9.278 9.278-9.279-9.278 9.279-9.278 9.278 9.278zm-91.632 0-9.279 9.278-9.278-9.278 9.278-9.278 9.279 9.278zm-9.28 305.051-9.279-9.278 9.279-9.279 9.279 9.279-9.279 9.278zm91.633 0-9.279-9.278 9.279-9.279 9.279 9.279-9.279 9.278zm35.666 1.863h-24.802l7.96-7.96a4.498 4.498 0 0 0 0-6.363l-15.643-15.644a4.5 4.5 0 0 0-6.364 0l-15.644 15.644a4.499 4.499 0 0 0 0 6.365l7.96 7.959h-69.9l7.96-7.959a4.503 4.503 0 0 0 0-6.365l-15.644-15.644a4.496 4.496 0 0 0-6.364 0l-15.643 15.644a4.5 4.5 0 0 0 0 6.363l7.96 7.96h-24.802V56.854h24.802l-7.96 7.96a4.499 4.499 0 0 0 0 6.364l15.643 15.643a4.485 4.485 0 0 0 3.182 1.318 4.486 4.486 0 0 0 3.182-1.318l15.644-15.643a4.499 4.499 0 0 0 0-6.365l-7.96-7.959h69.902l-7.96 7.959a4.503 4.503 0 0 0 0 6.365l15.644 15.643a4.483 4.483 0 0 0 3.182 1.318 4.485 4.485 0 0 0 3.182-1.318l15.643-15.643a4.499 4.499 0 0 0 0-6.364l-7.96-7.96h24.802v318.055z"/><path d="M336.256 0a4.5 4.5 0 0 0-4.5 4.5v7.014h-6.047V4.5a4.5 4.5 0 0 0-9 0v7.014h-6.047V4.5a4.5 4.5 0 0 0-9 0v7.014h-6.047V4.5a4.5 4.5 0 0 0-9 0v7.014h-6.047V4.5a4.5 4.5 0 0 0-9 0v7.014h-6.047V4.5a4.5 4.5 0 0 0-9 0v7.014h-6.047V4.5a4.5 4.5 0 0 0-9 0v7.014h-6.047V4.5a4.5 4.5 0 0 0-9 0v7.014h-6.047V4.5a4.5 4.5 0 0 0-9 0v7.014h-6.047V4.5a4.5 4.5 0 0 0-9 0v7.014h-6.047V4.5a4.5 4.5 0 0 0-9 0v7.014h-6.047V4.5a4.5 4.5 0 0 0-9 0v7.014h-6.047V4.5a4.5 4.5 0 0 0-9 0v7.014h-6.047V4.5a4.5 4.5 0 0 0-9 0v7.014H130.1V4.5a4.5 4.5 0 0 0-9 0v7.014h-6.047V4.5a4.5 4.5 0 0 0-9 0v7.014h-6.047V4.5a4.5 4.5 0 0 0-9 0v422.762a4.5 4.5 0 0 0 9 0v-7.013h6.047v7.013a4.5 4.5 0 0 0 9 0v-7.013h6.047v7.013a4.5 4.5 0 0 0 9 0v-7.013h6.047v7.013a4.5 4.5 0 0 0 9 0v-7.013h6.047v7.013a4.5 4.5 0 0 0 9 0v-7.013h6.047v7.013a4.5 4.5 0 0 0 9 0v-7.013h6.047v7.013a4.5 4.5 0 0 0 9 0v-7.013h6.047v7.013a4.5 4.5 0 0 0 9 0v-7.013h6.047v7.013a4.5 4.5 0 0 0 9 0v-7.013h6.047v7.013a4.5 4.5 0 0 0 9 0v-7.013h6.047v7.013a4.5 4.5 0 0 0 9 0v-7.013h6.047v7.013a4.5 4.5 0 0 0 9 0v-7.013h6.047v7.013a4.5 4.5 0 0 0 9 0v-7.013h6.047v7.013a4.5 4.5 0 0 0 9 0v-7.013h6.047v7.013a4.5 4.5 0 0 0 9 0v-7.013h6.047v7.013a4.5 4.5 0 0 0 9 0v-7.013h6.047v7.013a4.5 4.5 0 0 0 9 0V4.5a4.503 4.503 0 0 0-4.502-4.5zm-236.25 20.514h231.75v390.735h-231.75V20.514z"/></svg>